<?xml version="1.0" encoding="utf-8"?>
<!-- Generator: Adobe Illustrator 16.0.4, SVG Export Plug-In . SVG Version: 6.00 Build 0)  -->
<!DOCTYPE svg PUBLIC "-//W3C//DTD SVG 1.1//EN" "http://www.w3.org/Graphics/SVG/1.1/DTD/svg11.dtd">
<!-- Generator: Adobe Illustrator 18.0.0, SVG Export Plug-In  -->
<svg version="1.1" xmlns="http://www.w3.org/2000/svg" xmlns:xlink="http://www.w3.org/1999/xlink" x="0px" y="0px" width="15.3px" height="15.3px" viewBox="0 0 15.3 15.3" enable-background="new 0 0 15.3 15.3" xml:space="preserve">
	<path d="M13.1,2.2c-3-3-7.8-3-10.8,0c-3,3-3,7.8,0,10.8c3,3,7.8,3,10.8,0C16.1,10.1,16.1,5.2,13.1,2.2z M7.5,1.3C8.3,1.3,9,2,9,2.8c0,0.8-0.7,1.5-1.5,1.5c-0.8,0-1.5-0.7-1.5-1.5C6.1,2,6.7,1.3,7.5,1.3z M9.9,12.1c0,0.3-0.1,0.5-0.5,0.5H5.7c-0.3,0-0.5-0.2-0.5-0.5v-1c0-0.3,0.2-0.5,0.5-0.5h0.7V6.6H5.6c-0.3,0-0.5-0.2-0.5-0.5v-1c0-0.3,0.1-0.5,0.5-0.5h2.6c0.3,0,0.5,0.1,0.5,0.5v5.5h0.7c0.3,0,0.5,0.1,0.5,0.5V12.1z"/>
</svg>
