<?xml version="1.0" encoding="utf-8"?>
<!-- Generator: Adobe Illustrator 16.0.4, SVG Export Plug-In . SVG Version: 6.00 Build 0)  -->
<!DOCTYPE svg PUBLIC "-//W3C//DTD SVG 1.1//EN" "http://www.w3.org/Graphics/SVG/1.1/DTD/svg11.dtd">
<svg version="1.1" id="Layer_1" xmlns="http://www.w3.org/2000/svg" xmlns:xlink="http://www.w3.org/1999/xlink" x="0px" y="0px" viewBox="0 0 16 17" enable-background="new 0 0 16 17" xml:space="preserve">
	<g>
		<path class="alert" d="M8,16c1.104,0,2-0.896,2-2H6C6,15.104,6.896,16,8,16z"/>
		<path class="alert" d="M14,11c-0.857,0-0.857-0.596-0.857-0.9c0-3.528-1.071-6.521-3.204-7.632C9.727,1.376,8.942,0,8,0S6.273,1.376,6.062,2.468C3.929,3.579,2.857,6.572,2.857,10.1c0,0.305,0,0.9-0.857,0.9H1v2h5.277h3.445H15v-2H14z"/>
	</g>
</svg>
