<!-- Generator: Adobe Illustrator 18.0.0, SVG Export Plug-In  -->
<svg version="1.1"
	 xmlns="http://www.w3.org/2000/svg" xmlns:xlink="http://www.w3.org/1999/xlink" xmlns:a="http://ns.adobe.com/AdobeSVGViewerExtensions/3.0/"
	 x="0px" y="0px" width="14px" height="16px" viewBox="0 0 14 16" enable-background="new 0 0 14 16" xml:space="preserve">
<defs>
</defs>
<g>
	<path d="M12.5,0h-11C0.7,0,0,0.7,0,1.5v13C0,15.3,0.7,16,1.5,16h11c0.8,0,1.5-0.7,1.5-1.5v-13C14,0.7,13.3,0,12.5,0z M13,14.5
		c0,0.3-0.2,0.5-0.5,0.5h-11C1.2,15,1,14.8,1,14.5v-13C1,1.2,1.2,1,1.5,1h11C12.8,1,13,1.2,13,1.5V14.5z"/>
	<rect x="2" y="2" width="10" height="3"/>
	<rect x="2" y="6" width="2" height="2"/>
	<rect x="2" y="9" width="2" height="2"/>
	<rect x="2" y="12" width="2" height="2"/>
	<rect x="5" y="6" width="2" height="2"/>
	<rect x="5" y="9" width="2" height="2"/>
	<rect x="5" y="12" width="2" height="2"/>
	<rect x="8" y="6" width="4" height="2"/>
	<rect x="8" y="9" width="2" height="2"/>
	<rect x="8" y="12" width="2" height="2"/>
	<rect x="11" y="9" width="1" height="1"/>
	<rect x="11" y="11" width="1" height="1"/>
	<rect x="11" y="13" width="1" height="1"/>
</g>
</svg>
