<?xml version="1.0" encoding="utf-8"?>
<!-- Generator: Adobe Illustrator 17.0.0, SVG Export Plug-In . SVG Version: 6.00 Build 0)  -->
<!DOCTYPE svg PUBLIC "-//W3C//DTD SVG 1.1//EN" "http://www.w3.org/Graphics/SVG/1.1/DTD/svg11.dtd">
<svg version="1.1" xmlns="http://www.w3.org/2000/svg" xmlns:xlink="http://www.w3.org/1999/xlink" x="0px" y="0px" width="16px" height="16px" viewBox="0 0 16 16" enable-background="new 0 0 16 16" xml:space="preserve">
	<g>
		<path d="M12,6c-1.654,0-3,1.346-3,3c0,0.883,0.391,1.67,1,2.22V16l2-2l2,2v-4.78c0.609-0.549,1-1.336,1-2.22C15,7.346,13.654,6,12,6z M12,11c-1.105,0-2-0.896-2-2s0.895-2,2-2c1.104,0,2,0.896,2,2S13.104,11,12,11z"/>
		<polygon points="6.691,14 2,14 2,2 7.586,2 10.586,5 13,5 13,4.586 8.414,0 0,0 0,16 8.605,16 6.728,14.04 	"/>
		<rect x="3" y="5" width="5" height="1"/>
		<rect x="3" y="7" width="5" height="1"/>
		<rect x="3" y="9" width="5" height="1"/>
	</g>
</svg>
