<svg id="Layer_1" data-name="Layer 1" xmlns="http://www.w3.org/2000/svg" viewBox="0 0 17 17"><defs><style>.cls-1{fill:none;stroke:#000;stroke-miterlimit:10;}</style></defs><title>icon_content</title><polyline points="17 13 17 17 13 17"/><polyline class="cls-1" points="11 16.5 0.5 16.5 0.5 0.5 16.5 0.5 16.5 11"/><rect x="3" y="3" width="1" height="1"/><rect x="3" y="5" width="1" height="1"/><rect x="3" y="7" width="1" height="1"/><rect x="5" y="3" width="9" height="1"/><rect x="5" y="5" width="9" height="1"/><rect x="5" y="7" width="9" height="1"/><rect x="3" y="9" width="1" height="1"/><rect x="5" y="9" width="9" height="1"/><rect x="3" y="11" width="1" height="1"/><rect x="5" y="11" width="9" height="1"/><rect x="3" y="13" width="1" height="1"/><rect x="5" y="13" width="9" height="1"/></svg>