<?xml version="1.0" encoding="utf-8"?>
<!-- Generator: Adobe Illustrator 16.0.4, SVG Export Plug-In . SVG Version: 6.00 Build 0)  -->
<!DOCTYPE svg PUBLIC "-//W3C//DTD SVG 1.1//EN" "http://www.w3.org/Graphics/SVG/1.1/DTD/svg11.dtd">
<svg version="1.1" xmlns="http://www.w3.org/2000/svg" xmlns:xlink="http://www.w3.org/1999/xlink" x="0px" y="0px" viewBox="0 0 16 18" enable-background="new 0 0 16 18" xml:space="preserve">
	<path fill="#231F20" d="M7.5,0C3.359,0,0,3.359,0,7.5C0,11.642,3.359,15,7.5,15c4.143,0,7.5-3.358,7.5-7.5C15,3.359,11.643,0,7.5,0z M2.033,7.5c0-3.014,2.453-5.466,5.467-5.466c1.133,0,2.188,0.347,3.061,0.94L2.975,10.56C2.381,9.686,2.033,8.633,2.033,7.5z M7.5,12.967c-1.146,0-2.211-0.359-3.092-0.967l7.594-7.591c0.605,0.881,0.965,1.943,0.965,3.091C12.967,10.515,10.514,12.967,7.5,12.967z"/>
</svg>