<?xml version="1.0" encoding="utf-8"?>
<!-- Generator: Adobe Illustrator 16.0.4, SVG Export Plug-In . SVG Version: 6.00 Build 0)  -->
<!DOCTYPE svg PUBLIC "-//W3C//DTD SVG 1.1//EN" "http://www.w3.org/Graphics/SVG/1.1/DTD/svg11.dtd">
<svg version="1.1" xmlns="http://www.w3.org/2000/svg" xmlns:xlink="http://www.w3.org/1999/xlink" x="0px" y="0px" viewBox="0 0 16 18" enable-background="new 0 0 16 18" xml:space="preserve">
	<path fill="#231F20" d="M15.631,7.533L8.242,0.146c-0.195-0.195-0.514-0.195-0.707,0L0.146,7.533c-0.195,0.195-0.195,0.514,0,0.707l7.389,7.391c0.193,0.193,0.512,0.193,0.707,0l7.389-7.391C15.824,8.047,15.824,7.729,15.631,7.533z M8.793,11.484c0,0.275-0.227,0.5-0.5,0.5h-1c-0.275,0-0.5-0.225-0.5-0.5v-1c0-0.275,0.225-0.5,0.5-0.5h1c0.273,0,0.5,0.225,0.5,0.5V11.484z M8.793,8.484c0,0.275-0.227,0.5-0.5,0.5h-1c-0.275,0-0.5-0.225-0.5-0.5v-4c0-0.275,0.225-0.5,0.5-0.5h1c0.273,0,0.5,0.225,0.5,0.5V8.484z"/>
</svg>
