<?xml version="1.0" encoding="utf-8"?>
<!-- Generator: Adobe Illustrator 16.0.4, SVG Export Plug-In . SVG Version: 6.00 Build 0)  -->
<!DOCTYPE svg PUBLIC "-//W3C//DTD SVG 1.1//EN" "http://www.w3.org/Graphics/SVG/1.1/DTD/svg11.dtd">
<svg version="1.1" xmlns="http://www.w3.org/2000/svg" xmlns:xlink="http://www.w3.org/1999/xlink" x="0px" y="0px" viewBox="0 0 16 18" enable-background="new 0 0 16 18" xml:space="preserve">
	<g>
		<path fill="none" d="M4,1L1,4v8l3,3h8l3-3V4l-3-3H4z M14,11.586L11.586,14H4.414L2,11.586V4.414L4.414,2h7.172L14,4.414V11.586z"/>
		<path fill="#231F20" d="M13,0H3L0,3v10l3,3h10l3-3V3L13,0z M15,12l-3,3H4l-3-3V4l3-3h8l3,3V12z"/>
		<path fill="#231F20" d="M4.414,2L2,4.414v7.172L4.414,14h7.172L14,11.586V4.414L11.586,2H4.414z M10.279,11.189
			c-0.508,0.436-1.226,0.652-2.154,0.652c-0.947,0-1.692-0.214-2.235-0.643c-0.543-0.428-0.814-1.016-0.814-1.765h1.436
			c0.046,0.329,0.138,0.575,0.274,0.737c0.249,0.297,0.676,0.444,1.281,0.444c0.362,0,0.656-0.039,0.882-0.117
			c0.429-0.149,0.643-0.429,0.643-0.835c0-0.238-0.104-0.421-0.314-0.552c-0.21-0.127-0.543-0.239-1-0.337L7.499,8.604
			C6.733,8.435,6.207,8.251,5.92,8.053C5.436,7.721,5.193,7.202,5.193,6.495c0-0.645,0.237-1.18,0.712-1.606s1.171-0.64,2.091-0.64
			c0.768,0,1.422,0.201,1.965,0.603c0.541,0.402,0.826,0.985,0.852,1.75H9.367c-0.026-0.433-0.22-0.741-0.58-0.923
			c-0.24-0.121-0.539-0.181-0.896-0.181c-0.397,0-0.714,0.078-0.951,0.234C6.703,5.89,6.584,6.108,6.584,6.388
			c0,0.257,0.117,0.449,0.351,0.576c0.15,0.084,0.469,0.184,0.956,0.298L9.154,7.56c0.553,0.13,0.969,0.304,1.244,0.522
			c0.43,0.338,0.645,0.829,0.645,1.47C11.043,10.209,10.789,10.756,10.279,11.189z"/>
		<path fill="#FFFFFF" d="M9.154,7.56L7.891,7.262C7.404,7.148,7.085,7.048,6.935,6.964C6.701,6.837,6.584,6.645,6.584,6.388
			c0-0.28,0.118-0.498,0.355-0.654c0.237-0.156,0.554-0.234,0.951-0.234c0.357,0,0.656,0.06,0.896,0.181
			c0.36,0.182,0.554,0.49,0.58,0.923h1.445c-0.025-0.765-0.311-1.349-0.852-1.75C9.418,4.45,8.763,4.249,7.996,4.249
			c-0.919,0-1.616,0.213-2.091,0.64S5.193,5.851,5.193,6.495c0,0.707,0.243,1.226,0.728,1.558c0.287,0.199,0.812,0.382,1.578,0.552
			l0.779,0.171c0.456,0.098,0.79,0.21,1,0.337c0.21,0.13,0.314,0.314,0.314,0.552c0,0.406-0.214,0.686-0.643,0.835
			c-0.226,0.078-0.52,0.117-0.882,0.117c-0.605,0-1.032-0.147-1.281-0.444C6.649,10.01,6.558,9.763,6.511,9.435H5.076
			c0,0.749,0.271,1.337,0.814,1.765c0.543,0.429,1.288,0.643,2.235,0.643c0.928,0,1.646-0.217,2.154-0.652
			c0.51-0.434,0.764-0.98,0.764-1.638c0-0.641-0.215-1.131-0.645-1.47C10.123,7.864,9.707,7.69,9.154,7.56z"/>
	</g>
</svg>
