<?xml version="1.0" encoding="utf-8"?>
<!-- Generator: Adobe Illustrator 16.0.4, SVG Export Plug-In . SVG Version: 6.00 Build 0)  -->
<!DOCTYPE svg PUBLIC "-//W3C//DTD SVG 1.1//EN" "http://www.w3.org/Graphics/SVG/1.1/DTD/svg11.dtd">
<svg version="1.1" xmlns="http://www.w3.org/2000/svg" xmlns:xlink="http://www.w3.org/1999/xlink" x="0px" y="0px" viewBox="0 0 16 18" enable-background="new 0 0 16 18" xml:space="preserve">
	<path fill="#231F20" d="M15.123,12.621L8.115,0.357c-0.271-0.477-0.719-0.477-0.992,0L0.115,12.621
	C-0.156,13.1,0.07,13.49,0.619,13.49h14C15.17,13.49,15.396,13.1,15.123,12.621z M8.619,10.99c0,0.275-0.225,0.5-0.5,0.5h-1
	c-0.273,0-0.5-0.225-0.5-0.5v-1c0-0.275,0.227-0.5,0.5-0.5h1c0.275,0,0.5,0.225,0.5,0.5V10.99z M8.619,7.99
	c0,0.275-0.225,0.5-0.5,0.5h-1c-0.273,0-0.5-0.225-0.5-0.5v-3c0-0.275,0.227-0.5,0.5-0.5h1c0.275,0,0.5,0.225,0.5,0.5V7.99z"/>
</svg>
