<?xml version="1.0" encoding="utf-8"?>
<!-- Generator: Adobe Illustrator 16.0.4, SVG Export Plug-In . SVG Version: 6.00 Build 0)  -->
<!DOCTYPE svg PUBLIC "-//W3C//DTD SVG 1.1//EN" "http://www.w3.org/Graphics/SVG/1.1/DTD/svg11.dtd">
<svg version="1.1" xmlns="http://www.w3.org/2000/svg" xmlns:xlink="http://www.w3.org/1999/xlink" x="0px" y="0px" viewBox="0 0 16 18" enable-background="new 0 0 16 18" xml:space="preserve">
	<path fill="#231F20" d="M15.766,8.438C15.912,8.34,16,8.176,16,8s-0.088-0.34-0.234-0.438l-1.654-1.104L14.07,6.264l0.875-1.767
	C15.021,4.339,15.018,4.152,14.928,4c-0.088-0.152-0.246-0.25-0.42-0.262l-1.975-0.127l-0.143-0.145l-0.129-1.973
	C12.252,1.318,12.152,1.16,12,1.072s-0.338-0.094-0.496-0.016l-1.77,0.875L9.535,1.879L8.438,0.234C8.34,0.088,8.176,0,8,0
	S7.66,0.088,7.562,0.234L6.465,1.881L6.268,1.932L4.496,1.057C4.34,0.979,4.152,0.984,4,1.072S3.75,1.318,3.738,1.494L3.611,3.469
	L3.469,3.611L1.494,3.738C1.318,3.75,1.16,3.849,1.072,4C0.984,4.152,0.979,4.34,1.057,4.498l0.875,1.771L1.881,6.466L0.234,7.562
	C0.088,7.66,0,7.825,0,8.001s0.088,0.341,0.234,0.438l1.646,1.098l0.051,0.197l-0.875,1.77C0.979,11.662,0.984,11.849,1.072,12
	c0.088,0.153,0.246,0.252,0.422,0.263l1.975,0.128l0.143,0.144l0.129,1.973c0.01,0.176,0.107,0.335,0.262,0.423
	c0.152,0.088,0.338,0.094,0.496,0.016l1.77-0.875l0.199,0.052l1.096,1.645c0.098,0.146,0.264,0.234,0.439,0.234
	s0.34-0.088,0.438-0.234l1.098-1.645l0.199-0.052l1.77,0.874c0.156,0.078,0.344,0.072,0.496-0.016s0.25-0.247,0.262-0.423
	l0.127-1.971l0.146-0.146l1.971-0.127c0.176-0.011,0.334-0.109,0.422-0.262s0.094-0.338,0.016-0.496l-0.875-1.77l0.043-0.194
	L15.766,8.438z M11.85,6.635l-3.549,3.688l-1.109,1.109c-0.203,0.205-0.537,0.205-0.74,0l-1.109-1.109L3.699,8.68
	c-0.203-0.203-0.203-0.535,0-0.738l0.74-0.74c0.203-0.204,0.537-0.204,0.74,0L6.82,8.842l3.549-3.688
	c0.203-0.204,0.535-0.205,0.738-0.002l0.74,0.74C12.051,6.096,12.051,6.43,11.85,6.635z"/>
</svg>
