<?xml version="1.0" encoding="utf-8"?>
<!-- Generator: Adobe Illustrator 16.0.4, SVG Export Plug-In . SVG Version: 6.00 Build 0)  -->
<!DOCTYPE svg PUBLIC "-//W3C//DTD SVG 1.1//EN" "http://www.w3.org/Graphics/SVG/1.1/DTD/svg11.dtd">
<svg version="1.1" xmlns="http://www.w3.org/2000/svg" xmlns:xlink="http://www.w3.org/1999/xlink" x="0px" y="0px" viewBox="0 0 16 18" enable-background="new 0 0 16 18" xml:space="preserve">
	<g>
		<path fill="#231F20" d="M14,0H2C0.9,0,0,0.9,0,2v12c0,1.1,0.9,2,2,2h12c1.101,0,2-0.9,2-2V2C16,0.9,15.101,0,14,0z M8.92,12.362
			H7.168v-1.693H8.92V12.362z M10.591,7.429c-0.148,0.211-0.433,0.48-0.854,0.809L9.323,8.56C9.097,8.735,8.947,8.94,8.873,9.175
			C8.826,9.323,8.801,9.554,8.797,9.866H7.209c0.023-0.66,0.086-1.116,0.188-1.368c0.101-0.252,0.361-0.542,0.782-0.87l0.427-0.334
			c0.14-0.105,0.253-0.221,0.339-0.346C9.1,6.733,9.178,6.497,9.178,6.239c0-0.297-0.087-0.567-0.26-0.812
			c-0.174-0.244-0.49-0.366-0.95-0.366c-0.452,0-0.772,0.15-0.962,0.451C6.817,5.813,6.723,6.126,6.723,6.45H5.029
			c0.047-1.113,0.436-1.902,1.166-2.367c0.461-0.297,1.027-0.445,1.699-0.445c0.883,0,1.616,0.211,2.2,0.633s0.876,1.047,0.876,1.875
			C10.971,6.653,10.844,7.081,10.591,7.429z"/>
		<rect x="7.168" y="10.669" fill="#FFFFFF" width="1.752" height="1.693"/>
		<path fill="#FFFFFF" d="M10.095,4.271c-0.584-0.422-1.317-0.633-2.2-0.633c-0.672,0-1.238,0.148-1.699,0.445
			C5.465,4.548,5.076,5.337,5.029,6.45h1.693c0-0.324,0.095-0.637,0.283-0.938c0.189-0.301,0.51-0.451,0.962-0.451
			c0.46,0,0.776,0.122,0.95,0.366c0.173,0.244,0.26,0.515,0.26,0.812c0,0.258-0.078,0.494-0.233,0.709
			c-0.086,0.125-0.199,0.24-0.339,0.346L8.179,7.628c-0.421,0.328-0.682,0.618-0.782,0.87C7.295,8.75,7.232,9.206,7.209,9.866h1.588
			c0.004-0.312,0.029-0.543,0.076-0.691C8.947,8.94,9.097,8.735,9.323,8.56l0.414-0.322c0.421-0.328,0.705-0.598,0.854-0.809
			c0.253-0.348,0.38-0.775,0.38-1.283C10.971,5.317,10.679,4.692,10.095,4.271z"/>
	</g>
</svg>
