<?xml version="1.0" encoding="utf-8"?>
<!-- Generator: Adobe Illustrator 16.0.4, SVG Export Plug-In . SVG Version: 6.00 Build 0)  -->
<!DOCTYPE svg PUBLIC "-//W3C//DTD SVG 1.1//EN" "http://www.w3.org/Graphics/SVG/1.1/DTD/svg11.dtd">
<svg version="1.1" xmlns="http://www.w3.org/2000/svg" xmlns:xlink="http://www.w3.org/1999/xlink" x="0px" y="0px" viewBox="0 0 16 18" enable-background="new 0 0 16 18" xml:space="preserve">
	<g>
		<path fill="#231F20" d="M15.631,7.533L8.242,0.146c-0.195-0.195-0.514-0.195-0.707,0L0.146,7.533c-0.195,0.195-0.195,0.514,0,0.707
			l7.389,7.391c0.193,0.193,0.512,0.193,0.707,0l7.389-7.391C15.824,8.047,15.824,7.729,15.631,7.533z M8.655,11.523h-1.46v-1.411
			h1.46V11.523z M10.047,7.412c-0.123,0.176-0.359,0.4-0.711,0.674L8.991,8.354C8.802,8.501,8.677,8.672,8.616,8.867
			c-0.039,0.124-0.06,0.316-0.063,0.576H7.229c0.02-0.55,0.071-0.93,0.156-1.14s0.302-0.452,0.652-0.725L8.393,7.3
			c0.117-0.088,0.211-0.184,0.282-0.288C8.805,6.833,8.87,6.636,8.87,6.421c0-0.248-0.072-0.473-0.217-0.676S8.245,5.439,7.861,5.439
			c-0.377,0-0.644,0.125-0.801,0.376c-0.158,0.25-0.236,0.511-0.236,0.781H5.413c0.039-0.928,0.363-1.585,0.972-1.973
			C6.769,4.376,7.24,4.253,7.8,4.253c0.736,0,1.346,0.176,1.833,0.527s0.729,0.873,0.729,1.562
			C10.363,6.766,10.258,7.123,10.047,7.412z"/>
		<rect x="7.195" y="10.112" fill="#FFFFFF" width="1.46" height="1.411"/>
		<path fill="#FFFFFF" d="M9.634,4.78C9.146,4.429,8.536,4.253,7.8,4.253c-0.56,0-1.032,0.124-1.416,0.371
			C5.775,5.011,5.452,5.669,5.413,6.597h1.411c0-0.27,0.079-0.531,0.236-0.781c0.157-0.25,0.424-0.376,0.801-0.376
			c0.383,0,0.647,0.102,0.792,0.305S8.87,6.173,8.87,6.421c0,0.215-0.065,0.412-0.195,0.591C8.604,7.116,8.509,7.212,8.393,7.3
			L8.037,7.578C7.687,7.852,7.469,8.093,7.385,8.303s-0.136,0.59-0.156,1.14h1.323c0.003-0.26,0.024-0.453,0.063-0.576
			c0.062-0.195,0.187-0.366,0.375-0.513l0.345-0.269c0.352-0.273,0.588-0.498,0.711-0.674c0.211-0.29,0.316-0.646,0.316-1.069
			C10.363,5.653,10.121,5.132,9.634,4.78z"/>
	</g>
</svg>
