<?xml version="1.0" encoding="utf-8"?>
<!-- Generator: Adobe Illustrator 16.0.4, SVG Export Plug-In . SVG Version: 6.00 Build 0)  -->
<!DOCTYPE svg PUBLIC "-//W3C//DTD SVG 1.1//EN" "http://www.w3.org/Graphics/SVG/1.1/DTD/svg11.dtd">
<svg version="1.1" xmlns="http://www.w3.org/2000/svg" xmlns:xlink="http://www.w3.org/1999/xlink" x="0px" y="0px" viewBox="0 0 16 18" enable-background="new 0 0 16 18" xml:space="preserve">
	<g>
		<path fill="#231F20" d="M13.08,2.243c-2.992-2.99-7.844-2.99-10.836,0s-2.992,7.843,0,10.835s7.846,2.99,10.836,0C16.072,10.088,16.072,5.233,13.08,2.243z M11.144,11.26H9.742V6.392c0-0.14,0.001-0.336,0.005-0.588S9.752,5.356,9.752,5.22l-1.364,6.04H6.926L5.572,5.22c0,0.137,0.001,0.331,0.005,0.583s0.005,0.448,0.005,0.588v4.868H4.181V4.062h2.188l1.31,5.659l1.3-5.659h2.164V11.26z"/>
		<path fill="#FFFFFF" d="M7.679,9.722l-1.31-5.659H4.181v7.197h1.401V6.392c0-0.14-0.001-0.336-0.005-0.588S5.572,5.356,5.572,5.22l1.354,6.04h1.462l1.364-6.04c0,0.137-0.001,0.331-0.005,0.583S9.742,6.251,9.742,6.392v4.868h1.401V4.062H8.979L7.679,9.722z"/>
	</g>
</svg>
