<?xml version="1.0" encoding="utf-8"?>
<!-- Generator: Adobe Illustrator 16.0.4, SVG Export Plug-In . SVG Version: 6.00 Build 0)  -->
<!DOCTYPE svg PUBLIC "-//W3C//DTD SVG 1.1//EN" "http://www.w3.org/Graphics/SVG/1.1/DTD/svg11.dtd">
<svg version="1.1" xmlns="http://www.w3.org/2000/svg" xmlns:xlink="http://www.w3.org/1999/xlink" x="0px" y="0px" width="16px" height="18px" viewBox="0 0 16 18" enable-background="new 0 0 16 18" xml:space="preserve">
	<g>
		<path fill="#231F20" d="M8,0C3.582,0,0,3.582,0,8s3.582,8,8,8s8-3.582,8-8S12.418,0,8,0z M8,15c-3.859,0-7-3.14-7-7
			c0-3.86,3.141-7,7-7s7,3.14,7,7C15,11.86,11.859,15,8,15z"/>
		<path fill="#231F20" d="M8,3C5.238,3,3,5.238,3,8c0,0.879,0.246,1.692,0.645,2.41l6.766-6.766C9.693,3.247,8.879,3,8,3z"/>
		<path fill="#231F20" d="M12.355,5.59L5.59,12.355C6.309,12.754,7.121,13,8,13c2.762,0,5-2.238,5-5
			C13,7.121,12.754,6.308,12.355,5.59z"/>
	</g>
</svg>
