<?xml version="1.0" encoding="utf-8"?>
<!-- Generator: Adobe Illustrator 17.0.0, SVG Export Plug-In . SVG Version: 6.00 Build 0)  -->
<!DOCTYPE svg PUBLIC "-//W3C//DTD SVG 1.1//EN" "http://www.w3.org/Graphics/SVG/1.1/DTD/svg11.dtd">
<svg version="1.1" xmlns="http://www.w3.org/2000/svg" xmlns:xlink="http://www.w3.org/1999/xlink" x="0px" y="0px" width="80px" height="80px" viewBox="0 0 16 16" enable-background="new 0 0 80 80" xml:space="preserve">
	<path d="M0.25,13"/>
	<g>
		<path d="M8.001,9.332l7.14-6.303C15.093,3.022,15.05,3,15,3H1C0.969,3,0.943,3.015,0.913,3.018L8.001,9.332z"/>
		<path d="M16,4c0-0.119-0.03-0.229-0.068-0.335l-5.041,4.451l4.977,4.355C15.944,12.328,16,12.173,16,12V4z"/>
		<path d="M0.078,3.613C0.028,3.732,0,3.863,0,4v8c0,0.146,0.035,0.282,0.091,0.407L5.115,8.1L0.078,3.613z"/>
		<path d="M10.135,8.782l-2.136,1.886l-2.13-1.898l-4.921,4.218C0.965,12.99,0.981,13,1,13h13.955L10.135,8.782z"/>
	</g>
</svg>
