<?xml version="1.0" encoding="utf-8"?>
<!-- Generator: Adobe Illustrator 19.1.0, SVG Export Plug-In . SVG Version: 6.00 Build 0)  -->
<!DOCTYPE svg PUBLIC "-//W3C//DTD SVG 1.1//EN" "http://www.w3.org/Graphics/SVG/1.1/DTD/svg11.dtd">
<svg version="1.1" id="Layer_1" xmlns="http://www.w3.org/2000/svg" xmlns:xlink="http://www.w3.org/1999/xlink" x="0px" y="0px" viewBox="0 0 48 48" style="enable-background:new 0 0 48 48;" xml:space="preserve">
<style type="text/css">.st0{fill:none;}</style>
<path class="st0" d="M14.2,9.6c0.7,1.4,2.1,2.4,3.8,2.4c1.7,0,3.1-1,3.8-2.4"/>
<path class="st0" d="M21.7,6.1c-0.7-1.4-2.1-2.6-3.8-2.6c-1.7,0-3.2,1.2-3.8,2.6"/>
<path class="st0" d="M34.6,28.2c-0.7-1.4-2.1-2.6-3.8-2.6c-1.7,0-3.2,1.2-3.8,2.6"/>
<path class="st0" d="M27,31.8c0.7,1.4,2.1,2.4,3.8,2.4c1.7,0,3.1-1,3.8-2.4"/>
<path d="M24.2,6c-0.8-3-3.3-4.8-6.3-4.8c-3,0-5.5,1.8-6.3,4.8H1v4h10.7c0.8,2,3.3,4.7,6.2,4.7c3,0,5.4-2.7,6.2-4.7H47V6H24.2z M21.7,9.6c-0.7,1.4-2.1,2.4-3.8,2.4c-1.7,0-3.1-1-3.8-2.4c-0.3-0.7-0.4-1.2-0.4-1.9c0-0.6,0.1-1,0.4-1.7c0.7-1.4,2.1-2.6,3.8-2.6c1.7,0,3.2,1.2,3.8,2.6c0.2,0.7,0.4,1.1,0.4,1.7C22.1,8.5,21.9,8.9,21.7,9.6z"/>
<path d="M37,28c-0.8-3-3.3-4.8-6.3-4.8c-3,0-5.5,1.8-6.3,4.8H1v4h23.5c0.8,3,3.3,4.7,6.2,4.7c3,0,5.4-1.7,6.2-4.7h10v-4H37z M34.5,31.8c-0.7,1.4-2.1,2.4-3.8,2.4c-1.7,0-3.1-1-3.8-2.4c-0.3-0.7-0.4-1.2-0.4-1.9c0-0.6,0.1-1,0.4-1.7c0.7-1.4,2.1-2.6,3.8-2.6c1.7,0,3.2,1.2,3.8,2.6c0.2,0.7,0.4,1.1,0.4,1.7C34.9,30.6,34.8,31,34.5,31.8z"/>
</svg>
