<?xml version="1.0" encoding="utf-8"?>
<!-- Generator: Adobe Illustrator 19.1.0, SVG Export Plug-In . SVG Version: 6.00 Build 0)  -->
<svg version="1.1" id="Layer_2" xmlns="http://www.w3.org/2000/svg" xmlns:xlink="http://www.w3.org/1999/xlink" x="0px" y="0px"
	 viewBox="0 0 48 48" style="enable-background:new 0 0 48 48;" xml:space="preserve">
<rect x="1" y="11" width="11.6" height="4"/>
<rect x="23.2" y="11" width="23.8" height="4"/>
<g>
	<path d="M18,6.3c-3.6,0-6.6,3-6.6,6.8s2.9,6.7,6.6,6.7s6.6-3,6.6-6.7S21.7,6.3,18,6.3z M18,17.3c-2.3,0-4.2-1.9-4.2-4.3
		s1.9-4.3,4.2-4.3c2.3,0,4.2,1.9,4.2,4.3S20.4,17.3,18,17.3z"/>
</g>
<rect x="35.4" y="32.8" width="11.6" height="4"/>
<rect x="1" y="32.8" width="23.8" height="4"/>
<g>
	<path d="M30,41.5c3.6,0,6.6-3,6.6-6.8S33.6,28,30,28s-6.6,3-6.6,6.8S26.3,41.5,30,41.5z M30,30.4c2.3,0,4.2,1.9,4.2,4.3
		s-1.9,4.3-4.2,4.3c-2.3,0-4.2-1.9-4.2-4.3S27.6,30.4,30,30.4z"/>
</g>
</svg>
