<?xml version="1.0" encoding="utf-8"?>
<!-- Generator: Adobe Illustrator 16.0.4, SVG Export Plug-In . SVG Version: 6.00 Build 0)  -->
<!DOCTYPE svg PUBLIC "-//W3C//DTD SVG 1.1//EN" "http://www.w3.org/Graphics/SVG/1.1/DTD/svg11.dtd">
<svg version="1.1" xmlns="http://www.w3.org/2000/svg" xmlns:xlink="http://www.w3.org/1999/xlink" x="0px" y="0px" width="75px" height="75px" viewBox="0 0 15 15" enable-background="new 0 0 75 75" xml:space="preserve">
	<path class="gear" d="M14.2,6H12.1c-0.1-0.4-0.3-0.8-0.5-1.1L13,3.5c0.3-0.3,0.3-0.9,0-1.2l-0.6-0.6c-0.301-0.3-0.9-0.3-1.2,0L9.8,3.2C9.4,2.9,9,2.8,8.5,2.7V0.8C8.5,0.4,8.2,0,7.7,0H6.9C6.4,0,6,0.4,6,0.8v1.8C5.6,2.8,5.1,3,4.7,3.2L3.5,2C3.2,1.7,2.7,1.7,2.3,2L1.8,2.6C1.4,3,1.4,3.5,1.8,3.8L3,5C2.7,5.5,2.5,5.9,2.4,6.5H0.8C0.4,6.5,0,6.8,0,7.3v0.8C0,8.6,0.4,9,0.8,9h1.7c0.2,0.5,0.4,1,0.7,1.4l-1.1,1.1c-0.3,0.3-0.3,0.9,0,1.2l0.6,0.6c0.3,0.3,0.9,0.3,1.2,0L5.1,12c0.4,0.2,0.9,0.4,1.4,0.4V14.1c0,0.5,0.4,0.801,0.8,0.801h0.8C8.6,15,9,14.6,9,14.2v-2c0.4-0.101,0.8-0.3,1.2-0.601l1.3,1.301c0.3,0.3,0.9,0.3,1.2,0l0.6-0.601c0.3-0.3,0.3-0.899,0-1.2l-1.5-1.5C12,9.3,12.1,9,12.2,8.5h2c0.5,0,0.8-0.4,0.8-0.8V6.9C15,6.4,14.6,6,14.2,6z M7.3,9.6C6.1,9.6,5.2,8.7,5.2,7.5s0.9-2.1,2.1-2.1C8.5,5.4,9.4,6.3,9.4,7.5S8.4,9.6,7.3,9.6z"/>
</svg>
