<!-- Generator: Adobe Illustrator 18.0.0, SVG Export Plug-In  -->
<svg version="1.1"
	 xmlns="http://www.w3.org/2000/svg" xmlns:xlink="http://www.w3.org/1999/xlink" xmlns:a="http://ns.adobe.com/AdobeSVGViewerExtensions/3.0/"
	 x="0px" y="0px" width="15.4px" height="15.4px" viewBox="0 0 15.4 15.4" enable-background="new 0 0 15.4 15.4"
	 xml:space="preserve">
<defs>
</defs>
<g>
	<path d="M7.3,10.3c-0.7,0-1.2,0.5-1.2,1.2c0,0.6,0.5,1.2,1.2,1.2c0.6,0,1.2-0.5,1.2-1.2C8.5,10.9,8,10.3,7.3,10.3z"/>
	<path d="M7.6,2.7C6.7,2.7,5,3.1,5,3.5l0,0.2l0.4,0.9l0.2,0.1c0.1,0,0.9-0.5,1.7-0.5c0.8,0,1.2,0.3,1.2,1c0,0.8-0.5,1-1,1.2
		C7,6.7,6.5,6.7,6.5,7v1.7c0,0.2,0,0.3,0.3,0.3h1c0.3,0,0.3,0,0.3-0.3V7.8c0.8-0.3,2.3-0.8,2.3-2.6C10.4,3.8,9.3,2.7,7.6,2.7z"/>
	<path d="M7.7,0C3.4,0,0,3.4,0,7.7c0,4.2,3.4,7.7,7.7,7.7c4.2,0,7.7-3.4,7.7-7.7C15.4,3.4,11.9,0,7.7,0z M7.7,14.3
		c-3.6,0-6.6-2.9-6.6-6.6c0-3.6,2.9-6.6,6.6-6.6s6.6,2.9,6.6,6.6C14.3,11.3,11.3,14.3,7.7,14.3z"/>
</g>
</svg>
