<?xml version="1.0" encoding="utf-8"?>
<!-- Generator: Adobe Illustrator 16.0.4, SVG Export Plug-In . SVG Version: 6.00 Build 0)  -->
<!DOCTYPE svg PUBLIC "-//W3C//DTD SVG 1.1//EN" "http://www.w3.org/Graphics/SVG/1.1/DTD/svg11.dtd">
<svg version="1.1" id="Layer_1" xmlns="http://www.w3.org/2000/svg" xmlns:xlink="http://www.w3.org/1999/xlink" x="0px" y="0px" width="15.3px" height="15.3px" viewBox="0 0 15.3 15.3" enable-background="new 0 0 15.3 15.3" xml:space="preserve">
	<path class="help" d="M13.1,2.2c-3-3-7.8-3-10.8,0S-0.7,10,2.3,13s7.8,3,10.8,0C16.1,10.1,16.1,5.2,13.1,2.2z M7.3,13.8c-0.8,0-1.5-0.7-1.5-1.5c0-0.801,0.7-1.5,1.5-1.5c0.8,0,1.5,0.699,1.5,1.5C8.8,13.1,8.201,13.8,7.3,13.8z M8.4,8.6v0.8c0,0.4-0.199,0.6-0.6,0.6H6.7C6.3,10,6.1,9.8,6.1,9.4V7.5C6.1,7,6.6,6.9,7,6.8c0.1,0,0.2-0.1,0.3-0.1c0.7-0.2,1-0.4,1-1c0-0.2,0-0.8-1-0.8c-0.6,0-1.2,0.2-1.5,0.4c-0.2,0-0.3,0-0.3,0C5.3,5.3,5.1,5.2,5.1,5L4.7,4C4.6,3.9,4.6,3.8,4.6,3.8c0-0.7,2.3-1.1,3-1.1c1.899,0,3.2,1.2,3.2,3C10.8,7.6,9.3,8.201,8.4,8.6z"/>
</svg>
