<!-- Generator: Adobe Illustrator 18.0.0, SVG Export Plug-In  -->
<svg version="1.1"
	 xmlns="http://www.w3.org/2000/svg" xmlns:xlink="http://www.w3.org/1999/xlink" xmlns:a="http://ns.adobe.com/AdobeSVGViewerExtensions/3.0/"
	 x="0px" y="0px" width="16px" height="13px" viewBox="0 0 16 13" enable-background="new 0 0 16 13" xml:space="preserve">
<defs>
</defs>
<g>
	<path d="M0,0v13h16V0H0z M15,12H1V1h14V12z"/>
	<path d="M6,9l3-1l1-3l1,2l1,3l1,1h1V2H2v9h2L6,9z M5.5,3C6.3,3,7,3.7,7,4.5C7,5.3,6.3,6,5.5,6C4.7,6,4,5.3,4,4.5C4,3.7,4.7,3,5.5,3
		z"/>
</g>
</svg>
