<?xml version="1.0" encoding="utf-8"?>
<!-- Generator: Adobe Illustrator 18.1.0, SVG Export Plug-In  -->
<!DOCTYPE svg PUBLIC "-//W3C//DTD SVG 1.1//EN" "http://www.w3.org/Graphics/SVG/1.1/DTD/svg11.dtd">
<svg version="1.1" xmlns="http://www.w3.org/2000/svg" xmlns:xlink="http://www.w3.org/1999/xlink" x="0px" y="0px" viewBox="0 0 12.6 15.9" enable-background="new 0 0 12.6 15.9" xml:space="preserve">
	<g>
		<circle cx="7.5" cy="5.4" r="4.5"/>
		<path d="M12.2,15c-1.1-0.5-2.4-0.9-3.9-1v-1.1c1.3-0.1,2.5-0.6,3.6-1.3c0.1-0.1,0.3-0.2,0.4-0.3l0,0l0,0l0.3-0.3l-1.4-1.4l-0.7,0.7 l0.6,0.6c-1.5,1-3.5,1.4-5.3,0.9c-2.2-0.6-4-2.4-4.6-4.6C0.7,5.1,1.1,3,2.4,1.4l0.7,0.7l0.7-0.7L2.4,0L1.7,0.7l0,0 C0.2,2.6-0.4,5,0.3,7.3C0.9,9.9,3,12,5.6,12.7c0.2,0.1,0.5,0.1,0.7,0.1V14c-1.5,0.1-2.8,0.5-3.9,1c-0.2,0.1-0.3,0.3-0.3,0.6 c0.1,0.2,0.3,0.4,0.5,0.4h9.3c0.2,0,0.4-0.2,0.5-0.4C12.5,15.3,12.4,15.1,12.2,15z"/>
	</g>
</svg>
