<?xml version="1.0" encoding="utf-8"?>
<!-- Generator: Adobe Illustrator 16.0.4, SVG Export Plug-In . SVG Version: 6.00 Build 0)  -->
<!DOCTYPE svg PUBLIC "-//W3C//DTD SVG 1.1//EN" "http://www.w3.org/Graphics/SVG/1.1/DTD/svg11.dtd">
<svg version="1.1" xmlns="http://www.w3.org/2000/svg" xmlns:xlink="http://www.w3.org/1999/xlink" x="0px" y="0px" width="80px" height="75px" viewBox="0 0 16 15" enable-background="new 0 0 80 75" xml:space="preserve">
	<g>
		<path class="link" d="M3.036,15c-0.614,0-1.219-0.283-1.788-0.853l-0.083-0.081c-0.586-0.578-2.305-2.957,0.008-5.392c1.165-1.226,2.771-2.813,4.471-4.493C6.558,3.279,7.509,2.34,8.455,1.394c1.708-1.707,2.957-1.317,4.894,0.528c2.288,2.178,2.707,4.322,1.718,5.463C13.752,8.9,8.781,13.873,8.57,14.084c-0.278,0.278-0.729,0.278-1.008,0c-0.278-0.279-0.278-0.729,0-1.008c0.051-0.052,5.146-5.148,6.427-6.625c0.294-0.339,0.339-1.629-1.624-3.498C11.236,1.877,10.9,0.964,9.463,2.402C8.515,3.35,7.562,4.292,6.646,5.195C4.955,6.868,3.356,8.447,2.207,9.656c-1.349,1.422-0.656,2.788-0.041,3.395l0.089,0.089c0.524,0.522,0.952,0.665,1.718-0.103c0.213-0.213,0.656-0.643,1.213-1.185C6.729,10.354,9.6,7.564,10.18,6.838c0.185-0.23,0.453-0.787,0.196-1.011c-0.353-0.31-1.003,0.315-1.192,0.514c-2.011,2.112-4.639,4.643-4.666,4.667c-0.283,0.273-0.734,0.266-1.007-0.02c-0.273-0.283-0.265-0.734,0.019-1.007c0.026-0.024,2.633-2.535,4.622-4.624c1.291-1.356,2.481-1.201,3.163-0.604c0.831,0.727,0.636,2.154-0.021,2.974c-0.586,0.735-2.847,2.946-5.113,5.147c-0.55,0.535-0.988,0.96-1.199,1.17C4.346,14.682,3.687,15,3.036,15L3.036,15z"/>
	</g>
</svg>
