<?xml version="1.0" encoding="utf-8"?>
<!-- Generator: Adobe Illustrator 16.0.4, SVG Export Plug-In . SVG Version: 6.00 Build 0)  -->
<!DOCTYPE svg PUBLIC "-//W3C//DTD SVG 1.1//EN" "http://www.w3.org/Graphics/SVG/1.1/DTD/svg11.dtd">
<svg version="1.1" id="Layer_1" xmlns="http://www.w3.org/2000/svg" xmlns:xlink="http://www.w3.org/1999/xlink" x="0px" y="0px" width="16px" height="16px" viewBox="0 0 16 16" enable-background="new 0 0 16 16" xml:space="preserve">
	<g>
		<path class="list" d="M3.5,0h-3C0.2,0,0,0.2,0,0.5v3C0,3.8,0.2,4,0.5,4h3C3.8,4,4,3.8,4,3.5v-3C4,0.2,3.8,0,3.5,0z"/>
		<path class="list" d="M3.5,6h-3C0.2,6,0,6.2,0,6.5v3C0,9.8,0.2,10,0.5,10h3C3.8,10,4,9.8,4,9.5v-3C4,6.2,3.8,6,3.5,6z"/>
		<path class="list" d="M3.5,12h-3C0.2,12,0,12.2,0,12.5v3C0,15.8,0.2,16,0.5,16h3C3.8,16,4,15.8,4,15.5v-3C4,12.2,3.8,12,3.5,12z"/>
		<path class="list" d="M15.5,0h-9C6.2,0,6,0.2,6,0.5v3C6,3.8,6.2,4,6.5,4h9C15.8,4,16,3.8,16,3.5v-3C16,0.2,15.8,0,15.5,0z"/>
		<path class="list" d="M15.5,6h-9C6.2,6,6,6.2,6,6.5v3C6,9.8,6.2,10,6.5,10h9c0.3,0,0.5-0.2,0.5-0.5v-3C16,6.2,15.8,6,15.5,6z"/>
		<path class="list" d="M15.5,12h-9C6.2,12,6,12.2,6,12.5v3C6,15.8,6.2,16,6.5,16h9c0.3,0,0.5-0.2,0.5-0.5v-3C16,12.2,15.8,12,15.5,12z"/>
	</g>
</svg>
