<?xml version="1.0" encoding="utf-8"?>
<!-- Generator: Adobe Illustrator 19.1.0, SVG Export Plug-In . SVG Version: 6.00 Build 0)  -->
<svg version="1.1" id="Layer_2" xmlns="http://www.w3.org/2000/svg" xmlns:xlink="http://www.w3.org/1999/xlink" x="0px" y="0px" viewBox="0 0 48 48" style="enable-background:new 0 0 48 48;" xml:space="preserve">
	<g>
		<path d="M24.1,28.8c2.9,0,5.2-2.4,5.2-5.2V7.9c0-2.9-2.4-5.2-5.2-5.2c-2.9,0-5.2,2.4-5.2,5.2v15.7C18.9,26.5,21.2,28.8,24.1,28.8z" />
		<path d="M37.2,23.6v-5.2h-2.6v5.2c0,5.8-4.7,10.5-10.5,10.5c-5.8,0-10.5-4.7-10.5-10.5v-5.2H11v5.2c0,6.3,4.5,11.6,10.5,12.8v2.9l-7.8,2.6v2.6h20.9v-2.6l-7.8-2.6v-2.9C32.7,35.2,37.2,29.9,37.2,23.6z"/>
	</g>
</svg>
