<?xml version="1.0" encoding="utf-8"?>
<!-- Generator: Adobe Illustrator 17.0.0, SVG Export Plug-In . SVG Version: 6.00 Build 0)  -->
<!DOCTYPE svg PUBLIC "-//W3C//DTD SVG 1.1//EN" "http://www.w3.org/Graphics/SVG/1.1/DTD/svg11.dtd">
<svg version="1.1" xmlns="http://www.w3.org/2000/svg" xmlns:xlink="http://www.w3.org/1999/xlink" x="0px" y="0px" width="18px" height="15px" viewBox="0 0 18 15" enable-background="new 0 0 18 15" xml:space="preserve">
	<g>	
		<rect x="0.005" y="3" width="6.994" height="1"/>
		<rect x="17" y="7" width="1" height="1"/>
		<rect x="17" y="5" width="1" height="1"/>
		<rect x="17" y="3" width="1" height="1"/>
		<rect x="17" y="1" width="1" height="1"/>
		<rect x="17" width="1" height="9.002"/>
		<rect x="13" y="13" width="1" height="1"/>
		<rect x="6.991" width="1" height="9.002"/>
		<rect x="12.995" y="8.938" width="1" height="6.062"/>
		<rect x="0" y="3.005" width="1" height="11.996"/>
		<rect x="7.956" y="8.007" width="10.044" height="1"/>
		<rect y="14" width="13.899" height="1"/>
		<rect x="7.956" y="0" width="10.044" height="1"/>
		<rect x="11.755" y="2.107" width="3.56" height="1"/>
		<rect x="14.353" y="2.116" width="1" height="3.56"/>
		<rect x="13.366" y="3.021" width="1" height="1"/>
		<rect x="12.367" y="3.991" width="1" height="1"/>
		<rect x="11.376" y="4.973" width="1" height="1"/>
		<rect x="10.372" y="5.967" width="1" height="1"/>
		<rect x="-0.019" y="3.989" opacity="0.4" width="7.15" height="1.876"/>
	</g>
</svg>
