<?xml version="1.0" encoding="utf-8"?>
<!-- Generator: Adobe Illustrator 17.0.0, SVG Export Plug-In . SVG Version: 6.00 Build 0)  -->
<!DOCTYPE svg PUBLIC "-//W3C//DTD SVG 1.1//EN" "http://www.w3.org/Graphics/SVG/1.1/DTD/svg11.dtd">
<svg version="1.1" id="Layer_1" xmlns="http://www.w3.org/2000/svg" xmlns:xlink="http://www.w3.org/1999/xlink" x="0px" y="0px" width="48px" height="48px" viewBox="0 0 48 48" enable-background="new 0 0 48 48" xml:space="preserve">
	<g>
		<path fill="#FFFFFF" d="M19.925,26.312l-0.003,0.985c5.891,9.857,20.166,9.841,26.09,0.007l0.002-0.986C40.124,16.461,25.85,16.474,19.925,26.312z M33.203,32.696c-3.264-0.007-5.904-2.657-5.897-5.919c0.005-3.265,2.652-5.903,5.918-5.897c3.262,0.005,5.902,2.652,5.898,5.917C39.114,30.057,36.464,32.701,33.203,32.696z"/>
		<path fill="#FFFFFF" d="M32.981,23.842c-1.625,0.128-2.841,1.547-2.712,3.177c0.128,1.625,1.552,2.84,3.177,2.713c1.626-0.128,2.841-1.553,2.713-3.177C36.03,24.925,34.607,23.714,32.981,23.842z"/>
	</g>
	<path fill="none" d="M18.794,28.997H7.956v-18h25v5.785c3,0.012,5,0.099,5,0.257V9.997h-33v23h15.909C20.133,30.997,19.438,30.997,18.794,28.997z"/>
	<path fill="#FFFFFF" d="M4.956,32.997v-23h33v7.042c0,0.128,2,0.304,3,0.528V5.997h-39v29h14v5h-10v2h30v-2h-11v-4.77c-1-0.784-2.688-1.23-4.091-2.23H4.956z"/>
	<path fill="#F7A31C" d="M16.483,26.322c3.877-6.437,10.473-9.615,16.473-9.54v-5.785h-25v18h10.838c-0.599-1-1.482-1.04-1.99-1.891L16.483,26.322z"/>
</svg>
