<?xml version="1.0" encoding="utf-8"?>
<!-- Generator: Adobe Illustrator 17.0.0, SVG Export Plug-In . SVG Version: 6.00 Build 0)  -->
<!DOCTYPE svg PUBLIC "-//W3C//DTD SVG 1.1//EN" "http://www.w3.org/Graphics/SVG/1.1/DTD/svg11.dtd">
<svg version="1.1" id="Layer_1" xmlns="http://www.w3.org/2000/svg" xmlns:xlink="http://www.w3.org/1999/xlink" x="0px" y="0px"
	 width="48px" height="48px" viewBox="0 0 48 48" enable-background="new 0 0 48 48" xml:space="preserve">
<g>
	<path d="M19.969,26.315L19.966,27.3c5.891,9.857,20.166,9.841,26.09,0.007l0.002-0.986C40.168,16.464,25.894,16.477,19.969,26.315z
		 M33.247,32.699c-3.264-0.007-5.904-2.657-5.897-5.919c0.005-3.265,2.652-5.903,5.918-5.897c3.262,0.005,5.902,2.652,5.898,5.917
		C39.158,30.06,36.508,32.704,33.247,32.699z"/>
	<path d="M33.025,23.845c-1.625,0.128-2.841,1.547-2.712,3.177c0.128,1.625,1.552,2.84,3.177,2.713
		c1.626-0.128,2.841-1.553,2.713-3.177C36.074,24.928,34.651,23.717,33.025,23.845z"/>
</g>
<path fill="none" d="M18.838,29H8V11h25v5.785c3,0.012,5,0.099,5,0.257V10H5v23h15.909C20.177,31,19.482,31,18.838,29z"/>
<path d="M5,33V10h33v7.042c0,0.128,2,0.304,3,0.528V6H2v29h14v5H6v2h30v-2H25v-4.77C24,34.446,22.312,34,20.909,33H5z"/>
<path fill="#F7A31C" d="M16.527,26.325C20.404,19.888,27,16.71,33,16.785V11H8v18h10.838c-0.599-1-1.482-1.04-1.99-1.891
	L16.527,26.325z"/>
</svg>
