<?xml version="1.0" encoding="utf-8"?>
<!-- Generator: Adobe Illustrator 17.0.0, SVG Export Plug-In . SVG Version: 6.00 Build 0)  -->
<!DOCTYPE svg PUBLIC "-//W3C//DTD SVG 1.1//EN" "http://www.w3.org/Graphics/SVG/1.1/DTD/svg11.dtd">
<svg version="1.1" id="Layer_1" xmlns="http://www.w3.org/2000/svg" xmlns:xlink="http://www.w3.org/1999/xlink" x="0px" y="0px" width="20px" height="16px" viewBox="0 0 20 16" enable-background="new 0 0 20 16" xml:space="preserve">
	<g>
		<path d="M8.22,8.982L8.218,9.423c2.636,4.412,9.026,4.405,11.677,0.003l0.001-0.441C17.26,4.573,10.871,4.579,8.22,8.982z M14.162,11.84c-1.461-0.003-2.642-1.189-2.639-2.649c0.002-1.462,1.187-2.642,2.649-2.639c1.46,0.002,2.641,1.187,2.64,2.648C16.808,10.659,15.622,11.842,14.162,11.84z"/>
		<circle cx="14.167" cy="9.195" r="1.322"/>
	</g>
	<path fill="none" d="M7.714,10H3V3h12v1.717c0,0.005,0.059,0.044,1,0.115V2H2v9h6.64C8.313,10,8.002,10,7.714,10z"/>
	<path d="M2,11V2h14v2.832c0.941,0.057,1,0.136,1,0.236V0H0v13h7v2H3v1h12v-1h-5v-2.028C9,12.622,9.268,12,8.64,11H2z"/>
	<path fill="#F7A31C" d="M7.153,8.987C8.888,6.106,11,4.683,15,4.717V3H3v7h4.714C7.446,10,7.287,9.627,7.06,9.246L7.153,8.987z"/>
</svg>
