<?xml version="1.0" encoding="utf-8"?>
<!-- Generator: Adobe Illustrator 17.0.0, SVG Export Plug-In . SVG Version: 6.00 Build 0)  -->
<!DOCTYPE svg PUBLIC "-//W3C//DTD SVG 1.1//EN" "http://www.w3.org/Graphics/SVG/1.1/DTD/svg11.dtd">
	<svg version="1.1" id="Layer_1" xmlns="http://www.w3.org/2000/svg" xmlns:xlink="http://www.w3.org/1999/xlink" x="0px" y="0px" width="21px" height="16px" viewBox="0 0 21 16" enable-background="new 0 0 21 16" xml:space="preserve">
	<g>
		<path fill="#FFFFFF" d="M8.258,9.327L8.257,9.778c2.702,4.522,9.252,4.515,11.969,0.003l0.001-0.452C17.526,4.807,10.977,4.814,8.258,9.327z M14.35,12.256c-1.498-0.003-2.708-1.219-2.705-2.716c0.002-1.498,1.217-2.708,2.715-2.705c1.496,0.002,2.708,1.217,2.706,2.715C17.062,11.045,15.847,12.258,14.35,12.256z"/>
		<circle fill="#FFFFFF" cx="14.355" cy="9.545" r="1.355"/>
	</g>
	<g>
		<path fill="none" d="M7.74,11H3V2h12v2.955C15,4.96,16,5,16,5.073V1H1v11h7.69C8.354,12,8.035,11,7.74,11z"/>
		<path fill="#FFFFFF" d="M1,12V1h15v4.073c1,0.059,1,0.139,2,0.242V0H0v13h6v2H2v1h13v-1h-4v-1.583C10,13.057,9.333,12,8.69,12H1z"/>
		<path fill="#F7A31C" d="M7.061,9.331C8.84,6.378,12,4.92,15,4.955V2H3v9h4.74c-0.275,0-0.489-0.698-0.722-1.088L7.061,9.331z"/>
	</g>
</svg>
