<?xml version="1.0" encoding="utf-8"?>
<!-- Generator: Adobe Illustrator 18.0.0, SVG Export Plug-In . SVG Version: 6.00 Build 0)  -->
<!DOCTYPE svg PUBLIC "-//W3C//DTD SVG 1.1//EN" "http://www.w3.org/Graphics/SVG/1.1/DTD/svg11.dtd">
<svg version="1.1" id="Layer_1" xmlns="http://www.w3.org/2000/svg" xmlns:xlink="http://www.w3.org/1999/xlink" x="0px" y="0px" viewBox="0 0 120 96" enable-background="new 0 0 120 96" xml:space="preserve">
	<g>
		<path d="M48.9,54.1l0,2.7c16,26.8,54.8,26.7,70.9,0l0-2.7C103.8,27.4,65,27.4,48.9,54.1z M85,71.5c-8.9,0-16-7.2-16-16.1c0-8.9,7.2-16,16.1-16c8.9,0,16,7.2,16,16.1C101.1,64.3,93.9,71.5,85,71.5z"/>
		<path d="M84.4,47.4c-4.4,0.3-7.7,4.2-7.4,8.6c0.3,4.4,4.2,7.7,8.6,7.4c4.4-0.3,7.7-4.2,7.4-8.6C92.7,50.4,88.8,47.1,84.4,47.4z"/>
	</g>
	<path fill="none" d="M45.8,63H16V12h71v16.2c3,0,7,0.3,9,0.7V8H8v63h43.5C49.5,68,47.6,66,45.8,63z"/>
	<path d="M8,71V8h88v20.9c1,0.3,4,0.8,8,1.4V0H0v77h39v12H11v7h78v-7H65V78.4c-5-2.1-9.7-5.4-13.5-7.4H8z"/>
	<path fill="#F7A31C" d="M40.9,54.2C51.4,36.7,71,28,87,28.2V12H16v51h29.8c-1.6-1-3.4-3.6-4.7-5.9L40.9,54.2z"/>
</svg>