<?xml version="1.0" encoding="utf-8"?>
<!-- Generator: Adobe Illustrator 17.0.0, SVG Export Plug-In . SVG Version: 6.00 Build 0)  -->
<!DOCTYPE svg PUBLIC "-//W3C//DTD SVG 1.1//EN" "http://www.w3.org/Graphics/SVG/1.1/DTD/svg11.dtd">
<svg version="1.1" xmlns="http://www.w3.org/2000/svg" xmlns:xlink="http://www.w3.org/1999/xlink" x="0px" y="0px" width="16px" height="16px" viewBox="0 0 16 16" enable-background="new 0 0 16 16" xml:space="preserve">
	<g>
		<path d="M15,6h-2V4.161L9.875,1H3v5H0.999L0,7v5h3v2v1h1h8h1v-1v-2h3V7L15,6z M2,8H1V7h1V8z M12,11v1v2H4v-2v-1V9h8V11z M12,6H4V2h5v3h3V6z M14.844,10.75h-0.938v-1.5h0.938V10.75z"/>
		<rect x="5" y="10" width="6" height="1"/>
		<rect x="5" y="12" width="6" height="1"/>
	</g>
</svg>
