<!-- Generator: Adobe Illustrator 19.2.1, SVG Export Plug-In  -->
<svg version="1.1"
	 xmlns="http://www.w3.org/2000/svg" xmlns:xlink="http://www.w3.org/1999/xlink" xmlns:a="http://ns.adobe.com/AdobeSVGViewerExtensions/3.0/"
	 x="0px" y="0px" width="24.6px" height="20px" viewBox="0 0 24.6 20" enable-background="new 0 0 24.6 20" xml:space="preserve">
<defs>
</defs>
<g>
	<path d="M0,0v20h24.6V0H0z M23.1,18.5H1.5V1.5h21.5V18.5z"/>
	<path d="M9.2,13.8l4.6-1.5l1.5-4.6l1.5,3.1l1.5,4.6l1.5,1.5h1.5V3.1H3.1v13.8h3.1L9.2,13.8z M8.5,4.6c1.3,0,2.3,1,2.3,2.3
		c0,1.3-1,2.3-2.3,2.3c-1.3,0-2.3-1-2.3-2.3C6.2,5.6,7.2,4.6,8.5,4.6z"/>
</g>
</svg>
