<!-- Generator: Adobe Illustrator 19.2.1, SVG Export Plug-In  -->
<svg version="1.1"
	 xmlns="http://www.w3.org/2000/svg" xmlns:xlink="http://www.w3.org/1999/xlink" xmlns:a="http://ns.adobe.com/AdobeSVGViewerExtensions/3.0/"
	 x="0px" y="0px" width="25px" height="20px" viewBox="0 0 25 20" enable-background="new 0 0 25 20" xml:space="preserve">
<defs>
</defs>
<g>
	<rect x="15.6" y="10.1" width="6.2" height="6"/>
	<rect x="6.2" y="10.1" width="7.8" height="2"/>
	<rect x="6.2" y="14" width="7.8" height="2"/>
	<rect x="6.2" y="4.1" width="15.6" height="4"/>
	<path d="M3.1,0v4H0v12c0,2.2,1.4,4,3.1,4h18.8c1.7,0,3.1-1.8,3.1-4V0H3.1z M23.4,16c0,1.1-0.7,2-1.6,2H3.1c-0.9,0-1.6-0.9-1.6-2V6
		h1.6V16h1.6V2h18.8V16z"/>
</g>
</svg>
