<!-- Generator: Adobe Illustrator 19.2.1, SVG Export Plug-In  -->
<svg version="1.1"
	 xmlns="http://www.w3.org/2000/svg" xmlns:xlink="http://www.w3.org/1999/xlink" xmlns:a="http://ns.adobe.com/AdobeSVGViewerExtensions/3.0/"
	 x="0px" y="0px" width="21.3px" height="20px" viewBox="0 0 21.3 20" enable-background="new 0 0 21.3 20" xml:space="preserve">
<g>
	<path d="M3.3,0H0.7C0.3,0,0,0.3,0,0.7v18.7C0,19.7,0.3,20,0.7,20h2.7C3.7,20,4,19.7,4,19.3V0.7C4,0.3,3.7,0,3.3,0z M2.7,18.7H1.3
		v-1.3h1.3V18.7z M2.7,2.7H1.3V1.3h1.3V2.7z"/>
	<path d="M15.3,8H14c-0.4,0-0.7,0.3-0.7,0.7v10.7c0,0.4,0.3,0.7,0.7,0.7h1.3c0.4,0,0.7-0.3,0.7-0.7V8.7C16,8.3,15.7,8,15.3,8z"/>
	<path d="M20.7,6.7H18c-0.4,0-0.7,0.3-0.7,0.7v12c0,0.4,0.3,0.7,0.7,0.7h2.7c0.4,0,0.7-0.3,0.7-0.7v-12C21.3,7,21,6.7,20.7,6.7z
		 M20,18.7h-1.3v-1.3H20V18.7z M20,9.3h-1.3V8H20V9.3z"/>
	<path d="M11.3,4H6C5.6,4,5.3,4.3,5.3,4.7v14.7C5.3,19.7,5.6,20,6,20h5.3c0.4,0,0.7-0.3,0.7-0.7V4.7C12,4.3,11.7,4,11.3,4z
		 M10.7,17.3h-4V16h4V17.3z M10.7,8h-4V6.7h4V8z"/>
</g>
</svg>
