<!-- Generator: Adobe Illustrator 19.2.1, SVG Export Plug-In  -->
<svg version="1.1"
	 xmlns="http://www.w3.org/2000/svg" xmlns:xlink="http://www.w3.org/1999/xlink" xmlns:a="http://ns.adobe.com/AdobeSVGViewerExtensions/3.0/"
	 x="0px" y="0px" width="17.5px" height="20px" viewBox="0 0 17.5 20" enable-background="new 0 0 17.5 20" xml:space="preserve">
<g>
	<path d="M3.5,0C3.1,0,2.7,0.2,2.4,0.4l-2,2C0.2,2.7,0,3.1,0,3.5v15.9C0,19.7,0.3,20,0.6,20H15V2.5H2.1l1.2-1.2h12.9v16.2h1.2V0H3.5
		z M2.7,14.4C3,13.9,4,13.6,5,13.2c1-0.4,1.2-0.6,1.2-0.6l0-1c0,0-0.4-0.3-0.5-1.2c-0.2,0.1-0.5-0.4-0.5-0.6c0-0.2,0-0.8,0.3-0.7
		C5.5,8.7,5.5,8.3,5.5,8.1c0.1-0.8,0.8-1.6,2-1.6c1.2,0,1.9,0.8,2,1.6c0,0.2,0,0.6-0.1,1.1c0.3-0.1,0.3,0.5,0.3,0.7
		c0,0.2-0.3,0.6-0.5,0.6c-0.1,0.9-0.5,1.2-0.5,1.2l0,1c0,0,0.2,0.1,1.2,0.6c1,0.4,2,0.7,2.3,1.2c0.1,0.1,0.1,0.4,0.2,0.6h-10
		C2.5,14.7,2.6,14.5,2.7,14.4z"/>
</g>
</svg>
