<!-- Generator: Adobe Illustrator 19.2.1, SVG Export Plug-In  -->
<svg version="1.1" xmlns="http://www.w3.org/2000/svg" xmlns:xlink="http://www.w3.org/1999/xlink" xmlns:a="http://ns.adobe.com/AdobeSVGViewerExtensions/3.0" x="0px" y="0px" width="25.8px" height="20px" viewBox="0 0 25.8 20" enable-background="new 0 0 25.8 20" xml:space="preserve">
	<g>
		<path d="M12.9,20c-3.1-1.8-9-2-12.9-2V0c1.1,0,2,0.1,2.9,0.1l0.5,0l0.2,0c4.2,0.3,8.7,1.2,9.2,3.7l0.1,0.4V20z M25.8,18c-3.9,0-9.8,0.2-12.9,2V4.2c0-1.4,2.3-4.1,12.9-4.2V18z"/>
		<path fill="#FFFFFF" d="M12.2,19.1c-1.7-1.9-7.9-2.5-11.3-2.5V0.9c0.9,0,1.8,0,2.6,0.1L4,1l0.2,0c3.7,0.3,7.6,1,8,3.2l0.1,0.4V19.1z M24.9,16.6c-3.4,0-9.8,0.5-11.3,2.5V4.6c0-1.2,2-3.6,11.3-3.7V16.6z"/>
		<path d="M4.4,2.4c1.3,0.1,2.1,0.2,2.4,0.3v0.4v4.6C5.9,7.6,4.4,7.5,3,7.5V2.4c0.4,0,0.8,0,1.1,0"/>
		<path d="M2.4,2.4c0.8,0,1.5,0,2.2,0.1"/>
		<path d="M7.8,3.2c1.6,0.3,2.3,0.6,2.9,0.9l0,1.6c-0.6-0.2-1.4-0.4-2.9-0.7L7.8,3.2z"/>
		<path d="M7.8,6.2c1.6,0.3,2.3,0.6,2.9,0.9l0,1.6c-0.6-0.2-1.4-0.4-2.9-0.7L7.8,6.2z"/>
		<path d="M5.8,9.5c2.2,0.2,3.6,0.5,4.9,1.1l0,1.6c-2.3-0.9-5.5-1-7.7-1V9.4c0.8,0,1.5,0,2.2,0.1"/>
		<path d="M5.8,13c2.2,0.2,3.6,0.5,4.9,1.1l0,1.6c-2.3-0.9-5.5-1-7.7-1v-1.8c0.8,0,1.5,0,2.2,0.1"/>
		<path d="M20.5,9.6c0.7-0.1,1.4-0.1,2.2-0.1v1.8c-2.3,0-5.4,0.1-7.7,1l0-1.6c1.4-0.6,2.8-0.9,4.9-1.1"/>
		<path d="M20.5,13c0.7-0.1,1.4-0.1,2.2-0.1v1.8c-2.3,0-5.4,0.1-7.7,1l0-1.6c1.4-0.6,2.8-0.9,4.9-1.1"/>
		<path d="M20.6,3c0.7-0.1,1.4-0.1,2.2-0.1v1.8c-2.3,0-5.4,0.1-7.7,1l0-1.6C16.4,3.5,17.8,3.2,20,3"/>
		<path d="M20.6,6.3c0.7-0.1,1.4-0.1,2.2-0.1V8c-2.3,0-5.4,0.1-7.7,1l0-1.6c1.4-0.6,2.8-0.9,4.9-1.1"/>
	</g>
</svg>
