<?xml version="1.0" encoding="utf-8"?>
<!-- Generator: Adobe Illustrator 17.0.0, SVG Export Plug-In . SVG Version: 6.00 Build 0)  -->
<!DOCTYPE svg PUBLIC "-//W3C//DTD SVG 1.1//EN" "http://www.w3.org/Graphics/SVG/1.1/DTD/svg11.dtd">
<svg version="1.1" id="Layer_1" xmlns="http://www.w3.org/2000/svg" xmlns:xlink="http://www.w3.org/1999/xlink" x="0px" y="0px" width="48px" height="48px" viewBox="0 0 48 48" enable-background="new 0 0 48 48" xml:space="preserve">
	<g>
		<path d="M40.474,1.987H7.564c-3.017,0-5.485,2.633-5.485,5.849v32.17c0,3.216,2.468,5.849,5.485,5.849h32.91c3.017,0,5.485-2.633,5.485-5.849V7.836C45.959,4.62,43.491,1.987,40.474,1.987z M7.564,37.081v-2.925h5.485c0,1.017,0.161,1.985,0.39,2.925H7.564z M24.019,42.931c-4.542,0-8.228-3.93-8.228-8.774c0-4.844,3.685-8.774,8.228-8.774c4.542,0,8.228,3.93,8.228,8.774C32.247,39.001,28.561,42.931,24.019,42.931z M40.474,37.081H34.6c0.229-0.94,0.39-1.908,0.39-2.925h5.485V37.081z M41.84,28.342l-8.377-0.035c-1.903-3.479-5.402-5.849-9.443-5.849s-7.541,2.37-9.444,5.849l-8.41-0.009V6.496h35.717L41.84,28.342z"/>
		<polygon points="21.277,40.006 29.504,34.157 21.277,28.308 	"/>
	</g>
</svg>
