<?xml version="1.0" encoding="utf-8"?>
<!-- Generator: Adobe Illustrator 16.0.4, SVG Export Plug-In . SVG Version: 6.00 Build 0)  -->
<!DOCTYPE svg PUBLIC "-//W3C//DTD SVG 1.1//EN" "http://www.w3.org/Graphics/SVG/1.1/DTD/svg11.dtd">
<svg version="1.1" id="Layer_1" xmlns="http://www.w3.org/2000/svg" xmlns:xlink="http://www.w3.org/1999/xlink" x="0px" y="0px" width="15.8px" height="15.8px" viewBox="0 0 15.8 15.8" enable-background="new 0 0 15.8 15.8" xml:space="preserve">
	<path class="search" d="M15.6,13.5l-2.8-2.799C13.6,9.701,14,8.4,14,7c0-3.9-3.1-7-7-7S0,3.1,0,7s3.1,7,7,7c1.4,0,2.701-0.399,3.8-1.1l2.8,2.801c0.2,0.199,0.5,0.199,0.7,0l1.4-1.4C15.8,14,15.8,13.701,15.6,13.5z M7,12C4.2,12,2,9.8,2,7c0-2.8,2.2-5,5-5c2.8,0,5,2.2,5,5C12,9.8,9.8,12,7,12z"/>
</svg>
