<?xml version="1.0" encoding="utf-8"?>
<!-- Generator: Adobe Illustrator 17.0.0, SVG Export Plug-In . SVG Version: 6.00 Build 0)  -->
<!DOCTYPE svg PUBLIC "-//W3C//DTD SVG 1.1//EN" "http://www.w3.org/Graphics/SVG/1.1/DTD/svg11.dtd">
<svg version="1.1" xmlns="http://www.w3.org/2000/svg" xmlns:xlink="http://www.w3.org/1999/xlink" x="0px" y="0px" width="14px" height="14px" viewBox="0 0 14 14" enable-background="new 0 0 14 14" xml:space="preserve">
	<path d="M13.871,11.99l-2.442-2.442c0.619-0.965,0.983-2.111,0.983-3.343C12.411,2.778,9.633,0,6.206,0S0,2.778,0,6.206s2.778,6.206,6.206,6.206c1.232,0,2.377-0.364,3.342-0.983l2.442,2.442c0.172,0.172,0.455,0.172,0.627,0l1.255-1.254C14.043,12.445,14.043,12.162,13.871,11.99z M6.206,10.638c-2.444,0-4.433-1.989-4.433-4.433s1.989-4.433,4.433-4.433s4.433,1.989,4.433,4.433S8.65,10.638,6.206,10.638z"/>
</svg>
