<?xml version="1.0" encoding="utf-8"?>
<!-- Generator: Adobe Illustrator 16.0.4, SVG Export Plug-In . SVG Version: 6.00 Build 0)  -->
<!DOCTYPE svg PUBLIC "-//W3C//DTD SVG 1.1//EN" "http://www.w3.org/Graphics/SVG/1.1/DTD/svg11.dtd">
<svg version="1.1" xmlns="http://www.w3.org/2000/svg" xmlns:xlink="http://www.w3.org/1999/xlink" xmlns:a="http://ns.adobe.com/AdobeSVGViewerExtensions/3.0/" x="0px" y="0px" width="79px" height="79px" viewBox="0 0 15.8 15.8" enable-background="new 0 0 79 79" xml:space="preserve">
	<path d="M15.6,13.5l-2.8-2.8C13.6,9.7,14,8.4,14,7c0-3.9-3.1-7-7-7S0,3.1,0,7s3.1,7,7,7c1.4,0,2.7-0.4,3.8-1.1l2.8,2.8c0.2,0.2,0.5,0.2,0.7,0l1.4-1.4C15.8,14,15.8,13.7,15.6,13.5z M7,12c-2.8,0-5-2.2-5-5s2.2-5,5-5s5,2.2,5,5S9.8,12,7,12z"/>
</svg>
