<!-- Generator: Adobe Illustrator 18.0.0, SVG Export Plug-In  -->
<svg version="1.1"
	 xmlns="http://www.w3.org/2000/svg" xmlns:xlink="http://www.w3.org/1999/xlink" xmlns:a="http://ns.adobe.com/AdobeSVGViewerExtensions/3.0/"
	 x="0px" y="0px" width="15.6px" height="16px" viewBox="0 0 15.6 16" enable-background="new 0 0 15.6 16" xml:space="preserve">
<defs>
</defs>
<path d="M15.3,12.2c-0.5-0.7-2-1.2-3.6-1.8c-1.6-0.6-1.9-0.9-1.9-0.9l0-1.5c0,0,0.6-0.4,0.8-1.8c0.4,0.1,0.7-0.5,0.8-0.9
	c0-0.3-0.1-1.2-0.5-1.2c0.1-0.7,0.2-1.3,0.1-1.6C10.8,1.3,9.6,0,7.8,0C6,0,4.8,1.3,4.7,2.5c0,0.3,0,0.9,0.1,1.6
	C4.4,4,4.3,4.9,4.3,5.2c0,0.3,0.4,1,0.8,0.9C5.3,7.5,5.8,8,5.8,8l0,1.5c0,0-0.4,0.2-1.9,0.9c-1.6,0.6-3.1,1.1-3.6,1.8
	C-0.1,12.8,0,16,0,16h15.5C15.6,16,15.7,12.8,15.3,12.2z"/>
</svg>
