<?xml version="1.0" encoding="utf-8"?>
<!-- Generator: Adobe Illustrator 16.0.4, SVG Export Plug-In . SVG Version: 6.00 Build 0)  -->
<!DOCTYPE svg PUBLIC "-//W3C//DTD SVG 1.1//EN" "http://www.w3.org/Graphics/SVG/1.1/DTD/svg11.dtd">
<svg version="1.1" xmlns="http://www.w3.org/2000/svg" xmlns:xlink="http://www.w3.org/1999/xlink" x="0px" y="0px" viewBox="0 0 17 11" enable-background="new 0 0 17 11" xml:space="preserve">
	<path d="M1,10.2l2.4-2.4c0.5,0.3,1.1,0.5,1.7,0.5c1.7,0,3.2-1.4,3.2-3.2S6.8,2,5.1,2S1.9,3.4,1.9,5.2c0,0.6,0.2,1.2,0.5,1.7L0.1,9.2C0,9.3,0,9.5,0.1,9.6l0.6,0.6C0.8,10.3,0.9,10.3,1,10.2z M2.8,5.2c0-1.2,1-2.3,2.3-2.3s2.3,1,2.3,2.3s-1,2.3-2.3,2.3S2.8,6.4,2.8,5.2z"/>
	<g>
		<rect x="3" width="14" height="1"/>
		<rect x="3" y="10" width="14" height="1"/>
		<rect x="10" y="6" width="7" height="1"/>
		<rect x="9" y="8" width="8" height="1"/>
		<rect x="10" y="4" width="7" height="1"/>
		<rect x="9" y="2" width="8" height="1"/>
	</g>
</svg>
