<?xml version="1.0" encoding="utf-8"?>
<!-- Generator: Adobe Illustrator 20.0.0, SVG Export Plug-In . SVG Version: 6.00 Build 0)  -->
<svg version="1.1" id="Layer_2" xmlns="http://www.w3.org/2000/svg" xmlns:xlink="http://www.w3.org/1999/xlink" x="0px" y="0px"
	 viewBox="0 0 92.2 98.2" style="enable-background:new 0 0 92.2 98.2;" xml:space="preserve">
<g id="Layer_3">
</g>
<g id="Layer_1">
</g>
<g id="Layer_4">
	<g>
		<path d="M43.1,63.3c0.2,0.2,0.3,0.4,0.6,0.5l32.9,31.7c3.6,3.6,9.5,3.5,13.1-0.2c3.5-3.6,3.4-9.5-0.2-13.1L56.5,50.5
			c-0.3-0.3-0.7-0.5-1-0.8L43.1,63.3z"/>
		<path d="M51.6,50.6L27,27.1c-0.2-0.2-0.5-0.3-0.6-0.5c0.2-0.3,0.3-0.7,0.5-1c3.2,0.6,9.1-5.9,14.1-11.1L25.9,0
			c-6.4,6.7-11.3,11.2-10.5,14.5c-1.5,0.8-2.9,1.7-3.7,2.6l-2.1,2.2c-1.3,1.4-2.1,3-2.4,4.8c-0.2,0.2-0.4,0.5-0.5,0.8l-0.8,1L5.8,26
			l-0.6,1c-0.4,0.6-0.8,1.2-1.2,1.9c-0.1,0.1-0.3,0.5-0.4,0.7c0,0,0,0.1-0.1,0.1l-0.3,0.6C2.8,31,2.3,31.8,2,32.5l0,0.1
			c-0.4,0.9-0.7,1.9-1.1,2.9l-0.1,0.6c-0.1,0.3-0.2,0.8-0.3,1.2l-0.2,1.3c-0.2,0.9-0.3,1.8-0.3,2.6l0,0.6C0,42.6,0,43.4,0.1,44
			c0,0.2,0,0.4,0,0.8c0,0.1,0,0.2,0,0.3c0,0.3,0,0.7,0.1,1l0.2,1.1c0,0.2,0.1,0.4,0.1,0.7c-0.1,0.4,0,0.9,0.1,1.3l0.8,2.7
			c0.2,0.8,1,1.3,1.8,1.2c0.4,0,0.8-0.2,1.1-0.6c0.2-0.2,0.4-0.6,0.4-1l0.4-2.7c0-0.2,0.1-0.6,0.2-0.9c0.1-0.2,0.1-0.4,0.2-0.7
			l0.3-1c0-0.1,0.1-0.2,0.1-0.4c0-0.1,0.1-0.2,0.1-0.3c0.1-0.2,0.2-0.4,0.2-0.7C6.7,44.4,6.8,44,7,43.6c0.1-0.2,0.2-0.3,0.3-0.6
			c0.2-0.4,0.5-0.9,0.8-1.2c0,0,0,0,0-0.1l0.7-0.9c0.1-0.2,0.3-0.3,0.4-0.5c0.1-0.1,0.2-0.2,0.3-0.3c0.3-0.5,0.9-0.9,1.3-1.3
			l0.2-0.2c0.3-0.3,0.7-0.6,1.1-0.9c0.1-0.1,0.3-0.2,0.4-0.3c0.2-0.1,0.4-0.2,0.6-0.3c0.3-0.2,0.7-0.5,1-0.7l0.8-0.5l0.8-0.3
			c0.2-0.1,0.6-0.2,0.8-0.3c0.1-0.1,0.3-0.1,0.4-0.2c0.1,0,0.2-0.1,0.4-0.1c0.2-0.1,0.3-0.1,0.6-0.2l0.2,0c0.2,0.3,0.6,0.8,0.8,1
			l24.6,23.8L51.6,50.6z"/>
	</g>
	<path d="M52.4,26.8c0.1,3.2-1.1,6.5-3.4,8.9L3.6,84.1C0.2,87.8,0,93.2,3.3,96.2l0,0c3.3,3.1,8.6,2.6,12.1-1.1l44.8-47.6
		c2.5-2.7,5.9-4.1,9.3-4c5.7,0.1,11.7-2.3,16.2-7c5.5-5.9,7.4-13.9,5.3-20.5c-0.1-0.4-0.7-0.5-1-0.1l-8.6,9.2
		c-2.4,2.6-6.3,2.9-8.6,0.8l-3.6-3.3c-2.3-2.1-2.2-6.1,0.2-8.7l8.2-8.8c0.3-0.3,0.2-0.9-0.3-1C70.8,3.1,63.7,5.5,58.5,11
		C54.2,15.6,52.1,21.3,52.4,26.8z M12.3,86.7c1.5,1.4,1.4,3.8-0.1,5.4c-1.6,1.7-4,1.9-5.4,0.5c-1.5-1.4-1.4-3.8,0.1-5.4
		C8.4,85.5,10.9,85.3,12.3,86.7z"/>
</g>
</svg>
