<?xml version="1.0" encoding="utf-8"?>
<!-- Generator: Adobe Illustrator 17.0.0, SVG Export Plug-In . SVG Version: 6.00 Build 0)  -->
<!DOCTYPE svg PUBLIC "-//W3C//DTD SVG 1.1//EN" "http://www.w3.org/Graphics/SVG/1.1/DTD/svg11.dtd">
<svg version="1.1" xmlns="http://www.w3.org/2000/svg" xmlns:xlink="http://www.w3.org/1999/xlink" x="0px" y="0px" width="60px" height="60px" viewBox="0 0 12 12" enable-background="new 0 0 60 60" xml:space="preserve">
	<path d="M9.333,0H2.667C1.201,0,0,1.201,0,2.667v6.667C0,10.799,1.201,12,2.667,12h6.667C10.799,12,12,10.799,12,9.333V2.667C12,1.201,10.799,0,9.333,0z M9.504,8.155L9.74,8.391L9.504,8.626L8.56,9.569L8.324,9.805L8.089,9.569L5.967,7.448L3.846,9.569L3.611,9.805L3.375,9.569L2.431,8.626L2.195,8.391l0.236-0.236l2.121-2.121L2.431,3.913L2.195,3.677l0.236-0.236l0.944-0.944l0.236-0.236l0.236,0.236l2.121,2.121l2.121-2.121l0.236-0.236L8.56,2.497l0.944,0.944L9.74,3.677L9.504,3.913L7.383,6.034L9.504,8.155z"/>
</svg>
