<?xml version="1.0" encoding="utf-8"?>
<!-- Generator: Adobe Illustrator 16.0.4, SVG Export Plug-In . SVG Version: 6.00 Build 0)  -->
<!DOCTYPE svg PUBLIC "-//W3C//DTD SVG 1.1//EN" "http://www.w3.org/Graphics/SVG/1.1/DTD/svg11.dtd">
<svg version="1.1" id="Layer_1" xmlns="http://www.w3.org/2000/svg" xmlns:xlink="http://www.w3.org/1999/xlink" x="0px" y="0px" width="15.4px" height="15.4px" viewBox="0 0 15.4 15.4" enable-background="new 0 0 15.4 15.4" xml:space="preserve">
	<g>
		<path class="help-outline" d="M7.3,10.3C6.6,10.3,6.1,10.8,6.1,11.5c0,0.601,0.5,1.2,1.199,1.2c0.601,0,1.2-0.5,1.2-1.2C8.5,10.9,8,10.3,7.3,10.3z"/>
		<path class="help-outline" d="M7.6,2.7C6.7,2.7,5,3.1,5,3.5v0.2l0.4,0.9l0.2,0.1C5.7,4.7,6.5,4.2,7.3,4.2c0.801,0,1.2,0.3,1.2,1c0,0.8-0.5,1-1,1.2C7,6.7,6.5,6.7,6.5,7v1.7c0,0.2,0,0.3,0.3,0.3h1C8.1,9,8.1,9,8.1,8.7V7.8c0.8-0.3,2.3-0.8,2.3-2.6C10.4,3.8,9.3,2.7,7.6,2.7z"/>
		<path class="help-outline" d="M7.7,0C3.4,0,0,3.4,0,7.7c0,4.2,3.4,7.7,7.7,7.7c4.2,0,7.7-3.4,7.7-7.7S11.9,0,7.7,0z M7.7,14.3c-3.6,0-6.6-2.899-6.6-6.6C1.1,4.1,4,1.1,7.7,1.1S14.3,4,14.3,7.7C14.3,11.3,11.3,14.3,7.7,14.3z"/>
	</g>
</svg>
